<svg width="100" height="100" xmlns="http://www.w3.org/2000/svg" class="iconAbove">
 <!---->
 <defs>
  <!---->
  <linearGradient gradientTransform="rotate(25)" id="4742b200-f7e0-4a80-aa59-d13e7cc77481" x1="0%" y1="0%" x2="100%" y2="0%">
   <stop offset="0%" stop-color="#041804"/>
   <stop offset="100%"/>
  </linearGradient>
 </defs>
 <defs>
  <!---->
 </defs>
 <!---->
 <g>
  <title>Layer 1</title>
  <g id="3f36c282-91ec-41d0-827f-af58f45d6eb8" fill="#152925">
   <path id="svg_2"/>
  </g>
  <g id="cf32e4d3-0f2f-4ae7-a146-1c0a4f3f460c" fill="url(#4742b200-f7e0-4a80-aa59-d13e7cc77481)">
   <path d="m50,93.606c-20.291,0 -37.736,-13.768 -42.424,-33.48a43.796,43.796 0 0 1 -1.182,-10.126c0,-24.045 19.561,-43.606 43.606,-43.606s43.606,19.561 43.606,43.606s-19.561,43.606 -43.606,43.606zm0,-83.212c-21.839,0 -39.606,17.768 -39.606,39.606c0,3.109 0.361,6.204 1.073,9.2c4.258,17.903 20.103,30.406 38.533,30.406c21.839,0 39.606,-17.768 39.606,-39.606s-17.767,-39.606 -39.606,-39.606z" id="svg_3" fill="#000000"/>
   <path d="m35.242,43.381c-2.316,0 -4.2,-1.885 -4.2,-4.201s1.884,-4.2 4.2,-4.2s4.2,1.884 4.2,4.2s-1.883,4.201 -4.2,4.201zm0,-6.402c-1.213,0 -2.2,0.987 -2.2,2.2c0,1.214 0.987,2.201 2.2,2.201s2.2,-0.987 2.2,-2.201c0,-1.212 -0.987,-2.2 -2.2,-2.2zm28.805,6.402c-2.316,0 -4.201,-1.885 -4.201,-4.201s1.885,-4.2 4.201,-4.2s4.2,1.884 4.2,4.2s-1.884,4.201 -4.2,4.201zm0,-6.402a2.203,2.203 0 0 0 -2.201,2.2c0,1.214 0.987,2.201 2.201,2.201c1.213,0 2.2,-0.987 2.2,-2.201c0,-1.212 -0.987,-2.2 -2.2,-2.2zm-3.72,31.005c-5.949,0 -10.976,-3.43 -10.976,-7.488c0,-3.193 2.385,-6.613 5.935,-6.613c1.291,0 2.548,0.565 3.954,1.311c3.801,2.015 10.864,1.047 10.885,1.043c0.336,-0.062 0.689,0.058 0.921,0.315c0.231,0.257 0.313,0.616 0.217,0.948c-0.125,0.429 -3.143,10.484 -10.936,10.484zm-8.975,-7.488c-0.068,2.595 3.687,5.488 8.976,5.488c4.693,0 7.387,-4.983 8.464,-7.553c-1.416,0.318 -7.437,0.582 -10.645,-1.563c-3.73,-2.493 -6.73,1.132 -6.795,3.628z" id="svg_4" fill="#000000"/>
   <path d="m39.287,67.984c-7.793,0 -10.811,-10.056 -10.936,-10.484a0.998,0.998 0 0 1 1.139,-1.263c0.02,0.004 7.051,1.389 10.884,-1.043c1.344,-0.853 2.663,-1.311 3.954,-1.311c3.55,0 5.935,3.42 5.935,6.613c0,4.059 -5.027,7.488 -10.976,7.488zm-8.464,-9.552c1.077,2.569 3.771,7.553 8.464,7.553c5.289,0 8.976,-2.893 8.976,-5.488c0,-2.913 -2.57,-6.079 -6.795,-3.627c-3.99,2.315 -9.343,2.047 -10.645,1.562zm-5.046,25.994a1,1 0 0 1 -1,-1l0,-44.009a1,1 0 1 1 2,0l0,44.009a1,1 0 0 1 -1,1zm59.109,-53.968c-12.746,0.001 -26.296,-9.025 -29.033,-10.944c-3.548,1.566 -24.069,10.222 -42.049,10.016a1,1 0 0 1 -0.987,-1.013a1.006,1.006 0 0 1 1.013,-0.987c0.229,0.003 0.458,0.005 0.688,0.005c19.059,0 40.809,-9.974 41.029,-10.075a1,1 0 0 1 1.011,0.101c0.151,0.111 15.036,10.896 28.339,10.896c0.241,0 0.479,-0.003 0.719,-0.011c0.57,0.02 1.014,0.417 1.03,0.97a1,1 0 0 1 -0.97,1.03c-0.263,0.008 -0.528,0.012 -0.79,0.012z" id="svg_5" fill="#000000"/>
   <path d="m35.242,49.631c-5.763,0 -10.45,-4.688 -10.45,-10.451s4.688,-10.45 10.45,-10.45s10.45,4.688 10.45,10.45s-4.687,10.451 -10.45,10.451zm0,-18.902c-4.659,0 -8.45,3.791 -8.45,8.45c0,4.66 3.791,8.451 8.45,8.451s8.45,-3.791 8.45,-8.451c0,-4.658 -3.791,-8.45 -8.45,-8.45z" id="svg_6" fill="#000000"/>
  </g>
 </g>
</svg>