<svg data-v-fde0c5aa="" xmlns="http://www.w3.org/2000/svg" viewBox="0 0 300 300" class="iconLeft"><!----><defs data-v-fde0c5aa=""><!----></defs><rect data-v-fde0c5aa="" fill="#E1EAE7" x="0" y="0" width="300px" height="300px" class="logo-background-square"></rect><defs data-v-fde0c5aa=""><!----></defs><g data-v-fde0c5aa="" id="e49a3bf3-1669-464e-b856-24bb338443e8" fill="#152925" transform="matrix(3.063263028096092,0,0,3.063263028096092,110.35960246514966,119.65837906401003)"><path d="M3.64 5.88L8.39 5.88L8.39 3.92L1.12 3.92L1.12 13.58L3.64 13.58L3.64 9.72L7.97 9.72L7.97 7.76L3.64 7.76ZM16.81 6.10L14.29 6.10L14.29 10.33C14.29 11.33 13.82 12.07 13.02 12.07C12.22 12.07 11.89 11.65 11.80 10.93C11.76 10.56 11.75 10.15 11.75 9.91L11.75 6.10L9.23 6.10L9.23 10.47C9.23 11.07 9.24 11.51 9.30 11.89C9.46 12.91 10.40 13.78 11.94 13.78C12.63 13.78 13.16 13.62 13.62 13.34L14.29 12.32L14.29 13.58L16.81 13.58ZM25.84 7.94C25.65 6.64 24.74 5.91 23.20 5.91C22.51 5.91 21.98 6.06 21.52 6.34L20.85 7.27L20.85 6.10L18.33 6.10L18.33 13.58L20.85 13.58L20.85 10.05C20.85 8.36 21.39 7.62 22.16 7.62C22.92 7.62 23.31 8.04 23.37 8.75C23.39 9.13 23.39 9.53 23.39 9.77L23.39 13.58L25.91 13.58L25.91 9.35C25.91 8.75 25.90 8.32 25.84 7.94ZM35.20 3.29L32.68 3.29L32.68 7.07L32.19 6.27C31.81 6.05 31.08 5.91 30.46 5.91C28.55 5.91 26.92 7.35 26.92 10.01C26.92 12.22 28.18 13.78 30.21 13.78C30.97 13.78 31.70 13.62 32.12 13.31L32.68 12.49L32.68 13.58L35.20 13.58ZM31.08 12.07C30.20 12.07 29.50 11.28 29.50 9.88C29.50 8.36 30.17 7.62 31.15 7.62C31.91 7.62 32.68 8.12 32.68 9.62L32.68 9.94C32.68 11.51 32.00 12.07 31.08 12.07ZM39.17 3.29L36.65 3.29L36.65 10.93C36.65 11.49 36.65 11.87 36.68 12.26C36.74 13.26 37.39 13.72 38.56 13.72C39.12 13.72 39.56 13.69 40.03 13.65L40.03 11.94C39.37 11.97 39.24 11.87 39.20 11.58C39.17 11.40 39.17 11.24 39.17 10.89ZM48.85 6.10L46.09 6.10L44.56 11.58L43.02 6.10L40.22 6.10L43.32 13.92L43.22 14.13C42.98 14.66 42.57 14.85 41.99 14.85C41.73 14.85 41.51 14.85 41.30 14.83L41.30 16.45C41.66 16.51 41.96 16.52 42.36 16.52C44.14 16.52 44.95 15.95 45.89 13.58Z"></path></g><defs data-v-fde0c5aa=""><linearGradient data-v-fde0c5aa="" gradientTransform="rotate(25)" id="d2e6c451-ca48-45a0-abb5-661995076411" x1="0%" y1="0%" x2="100%" y2="0%"><stop data-v-fde0c5aa="" offset="0%" stop-color="#041804" stop-opacity="1"></stop><stop data-v-fde0c5aa="" offset="100%" stop-opacity="1"></stop></linearGradient></defs><g data-v-fde0c5aa="" id="916db4c8-ff98-46de-85c2-3b0cf8a85029" stroke="none" fill="url(#d2e6c451-ca48-45a0-abb5-661995076411)" transform="matrix(0.6970423010270166,0,0,0.6970423010270166,35.54311481376388,115.14788295439514)"><path d="M50 93.606c-20.291 0-37.736-13.768-42.424-33.48A43.796 43.796 0 016.394 50C6.394 25.955 25.955 6.394 50 6.394S93.606 25.955 93.606 50 74.045 93.606 50 93.606zm0-83.212c-21.839 0-39.606 17.768-39.606 39.606 0 3.109.361 6.204 1.073 9.2C15.725 77.103 31.57 89.606 50 89.606c21.839 0 39.606-17.768 39.606-39.606S71.839 10.394 50 10.394z"></path><path d="M35.242 43.381c-2.316 0-4.2-1.885-4.2-4.201s1.884-4.2 4.2-4.2 4.2 1.884 4.2 4.2-1.883 4.201-4.2 4.201zm0-6.402c-1.213 0-2.2.987-2.2 2.2 0 1.214.987 2.201 2.2 2.201s2.2-.987 2.2-2.201c0-1.212-.987-2.2-2.2-2.2zM64.047 43.381c-2.316 0-4.201-1.885-4.201-4.201s1.885-4.2 4.201-4.2 4.2 1.884 4.2 4.2-1.884 4.201-4.2 4.201zm0-6.402a2.203 2.203 0 00-2.201 2.2c0 1.214.987 2.201 2.201 2.201 1.213 0 2.2-.987 2.2-2.201 0-1.212-.987-2.2-2.2-2.2zM60.327 67.984c-5.949 0-10.976-3.43-10.976-7.488 0-3.193 2.385-6.613 5.935-6.613 1.291 0 2.548.565 3.954 1.311 3.801 2.015 10.864 1.047 10.885 1.043.336-.062.689.058.921.315.231.257.313.616.217.948-.125.429-3.143 10.484-10.936 10.484zm-8.975-7.488c-.068 2.595 3.687 5.488 8.976 5.488 4.693 0 7.387-4.983 8.464-7.553-1.416.318-7.437.582-10.645-1.563-3.73-2.493-6.73 1.132-6.795 3.628z"></path><path d="M39.287 67.984c-7.793 0-10.811-10.056-10.936-10.484a.998.998 0 011.139-1.263c.02.004 7.051 1.389 10.884-1.043 1.344-.853 2.663-1.311 3.954-1.311 3.55 0 5.935 3.42 5.935 6.613 0 4.059-5.027 7.488-10.976 7.488zm-8.464-9.552c1.077 2.569 3.771 7.553 8.464 7.553 5.289 0 8.976-2.893 8.976-5.488 0-2.913-2.57-6.079-6.795-3.627-3.99 2.315-9.343 2.047-10.645 1.562zM25.777 84.426a1 1 0 01-1-1V39.417a1 1 0 112 0v44.009a1 1 0 01-1 1zM84.886 30.458c-12.746.001-26.296-9.025-29.033-10.944-3.548 1.566-24.069 10.222-42.049 10.016a1 1 0 01-.987-1.013 1.006 1.006 0 011.013-.987c.229.003.458.005.688.005 19.059 0 40.809-9.974 41.029-10.075a1 1 0 011.011.101c.151.111 15.036 10.896 28.339 10.896.241 0 .479-.003.719-.011.57.02 1.014.417 1.03.97a1 1 0 01-.97 1.03c-.263.008-.528.012-.79.012z"></path><path d="M35.242 49.631c-5.763 0-10.45-4.688-10.45-10.451s4.688-10.45 10.45-10.45 10.45 4.688 10.45 10.45-4.687 10.451-10.45 10.451zm0-18.902c-4.659 0-8.45 3.791-8.45 8.45 0 4.66 3.791 8.451 8.45 8.451s8.45-3.791 8.45-8.451c0-4.658-3.791-8.45-8.45-8.45z"></path></g><!----></svg>